<svg id="Layer_1" data-name="Layer 1" xmlns="http://www.w3.org/2000/svg" viewBox="0 0 1505.9 621.38" xmlns:xlink="http://www.w3.org/1999/xlink">
 <defs>
  <style>
   .cls-1{fill:#0000c9;}
  </style>
 </defs>
 <path class="cls-1" d="M1255.71,423.17c-27.79.37-42.59-17.32-42.59-48.71,0-2.08.06-4.12.16-6.14h109.19a104.24,104.24,0,0,0,3.61-25.62c0-38.26-23.46-67.49-71.46-67.49-49.08,0-92.74,48.36-92.74,99.25,0,48.71,31.76,78.31,84.8,78.31,23.46,0,46.56-7.94,62.8-20.21l-10.11-25.26A75.21,75.21,0,0,1,1255.71,423.17Zm-.36-120.53c16.24,0,24.54,10.47,24.54,33.56a63.5,63.5,0,0,1-.4,6.86H1217.2C1224,318.77,1238.43,302.64,1255.35,302.64Z">
 </path>
 <path class="cls-1" d="M823.37,264.39c0-39.7-31-68.57-78-68.57H654.48L585.91,448.44h57.38l25.27-93.11h49.79C775.37,355.33,823.37,318.52,823.37,264.39Zm-127,61.35H676.59l27.23-100.33h20.67c26.11,0,40.78,17.68,40.78,41.14C765.27,304.08,735.83,325.74,696.34,325.74Z">
 </path>
 <path class="cls-1" d="M898.13,279.9l6.44-23.45c3.25-12.27,8.66-33.2,16.24-57.38,7.94-24.9,22.37-40.42,41.86-40.42,9.38,0,15.16,4.33,15.16,11.55-.36,7.93-6.86,12.63-6.86,25.26,0,14.79,12.63,26.34,28.87,26.34a36.27,36.27,0,0,0,36.45-36.09c0-30.67-26.34-50.88-66.4-50.88-58.83,0-97.44,37.53-121.62,125.23L750.11,617h55.58l84.82-309.28h57.81l-38,140.75h55.58l45.47-168.54Z">
 </path>
 <polygon class="cls-1" points="1179.56 279.9 1032.32 279.9 1025.1 307.69 1096.37 307.69 985.77 448.44 1141.67 448.44 1148.89 420.65 1068.65 420.65 1179.56 279.9">
 </polygon>
 <path class="cls-1" d="M1471.15,277c-19.91,0-41.13,12.87-57.73,39.61l9.74-36.73h-55.58l-45.47,168.54h55.58l20.57-75.79c8.3-31,28.51-61.35,41.86-61.35,14.43,0,9,27.07,33.92,27.07,18,0,28.87-16.6,28.87-31.76C1502.91,288.93,1488.84,277,1471.15,277Z">
 </path>
 <path class="cls-1" d="M67.45,288.57c42.51-15.74,114.92-19.67,211-8.66l28.33-107c-109.4-15-224.32-3.94-251.08,34.63C43.84,224.82,40.69,261,67.45,288.57Zm421.89-17.31c-42.5,15.74-114.92,19.67-210.94,8.65L250.06,387c109.41,15,224.33,3.94,251.09-34.63C513,335,516.1,298.81,489.34,271.26ZM527.12,309l17.32-64.55c6.3-22.82,9.44-34.63,9.44-44.07,0-82.65-216.45-183.4-422.67-196l-29.12,107c212.52,15,429.76,118.07,424.25,197.57ZM29.67,250.79,12.36,315.33C6.06,338.16,2.91,350,2.91,359.41c0,82.65,216.46,183.4,422.68,196l29.12-107C242.19,433.4,25,330.29,30.46,250.79Z">
 </path>
</svg>