<svg width="400" height="371" viewBox="0 0 400 371" fill="none" xmlns="http://www.w3.org/2000/svg">
<path d="M11.1216 284.375H29.3661C35.2485 284.375 40.1198 283.272 43.5205 280.79C46.9672 278.309 48.6676 274.265 48.6676 269.577C48.6676 264.89 46.9672 260.846 43.5205 258.364C40.0738 255.882 35.4323 254.779 29.3661 254.779H1.33301V303.401H11.1216V284.375ZM39.1547 269.623C39.1547 271.967 38.5573 272.886 37.1326 273.805C35.5701 274.77 32.583 275.368 28.1253 275.368H11.1216V263.971H28.1253C32.6749 263.971 35.5701 264.568 37.1326 265.533C38.5573 266.176 39.0168 267.096 39.1547 269.623ZM84.1915 304.32C78.7687 304.32 72.6565 303.539 67.6933 300.276C62.7301 297.151 59.1455 291.406 59.2834 282.858V254.641H69.1179V282.858C69.2558 291.268 73.6676 295.175 84.2374 295.312C94.8073 294.991 99.1731 291.268 99.3569 282.858V254.641H109.191V282.858C109.191 291.406 105.745 297.151 100.782 300.276C95.7264 303.539 89.6143 304.32 84.1915 304.32ZM162.638 301.516C167.601 299.954 172.151 295.772 172.013 288.557C172.013 282.812 169.026 279.366 166.269 277.482C168.612 275.781 170.634 272.932 170.634 268.29C170.772 261.581 166.912 257.721 162.684 256.158C158.502 254.458 153.952 254.596 151.287 254.596H123.438V303.217H148.208C152.068 303.263 157.675 303.263 162.638 301.516ZM159.375 292.969C157.491 293.75 154.688 294.072 151.563 294.072H133.18V282.399H152.344C156.066 282.399 158.732 282.996 160.157 284.099C161.581 285.064 162.179 286.259 162.179 288.465C162.041 291.085 161.259 292.004 159.375 292.969ZM158.64 271.921C156.94 272.886 153.952 273.483 149.771 273.483H133.272V263.649H147.932C151.655 263.649 155.377 263.649 157.583 264.43C159.927 265.211 160.708 265.855 160.708 268.474C160.8 270.221 160.202 271.002 158.64 271.921ZM229.78 303.263H186.489V254.641H196.324V294.026H229.826C229.78 294.026 229.78 303.263 229.78 303.263ZM239.293 254.641H249.127V303.263H239.293V254.641ZM314.982 288.281L314.017 289.982C309.467 299.357 300.782 304.274 288.465 304.274H288.144C279.872 304.274 273.024 301.93 268.199 297.426C263.373 293.061 260.754 286.535 260.754 278.906C260.754 271.094 263.236 264.614 268.061 260.202C272.886 255.653 279.734 253.355 288.144 253.355C302.666 253.355 310.708 260.8 313.373 267.647L314.155 269.347L305.423 273.392L304.642 271.507C302.298 266.085 297.657 262.5 288.144 262.316C276.287 262.638 270.864 267.923 270.726 279.596C270.864 289.246 277.114 294.853 288.787 294.991C297.197 294.991 302.206 291.544 305.469 285.478L306.434 283.778L314.982 288.281ZM326.149 303.263V254.641H335.984V303.263H326.149ZM398.759 288.603C398.759 292.463 396.875 296.691 393.015 299.678C388.971 302.665 383.043 304.504 374.495 304.504H374.035C357.813 304.504 351.93 296.415 349.127 293.428L347.703 291.866L355.331 285.34L356.572 286.765C358.456 288.787 360.754 295.037 375.092 295.175C376.333 295.175 380.239 295.037 383.502 294.072C386.949 292.969 389.109 291.406 389.109 288.649C389.109 286.765 388.144 285.846 385.248 284.789C382.445 283.823 378.263 283.364 373.851 282.904C368.888 282.445 363.282 281.939 358.732 280.101C354.182 278.401 350.46 274.816 350.46 268.888C350.46 263.925 352.62 259.88 356.848 257.215C360.892 254.55 366.498 253.493 373.53 253.493C389.568 253.355 396.094 261.903 397.335 263.603L398.576 265.165L391.269 271.048L390.028 269.623C388.144 267.601 385.065 262.638 373.346 262.454C370.68 262.454 367.096 262.776 364.476 263.695C361.811 264.798 360.432 265.855 360.432 268.244C360.57 270.129 361.214 270.91 364.017 271.829C366.682 272.794 370.543 273.07 374.908 273.529C380.193 273.989 385.8 274.494 390.487 276.517C394.991 278.171 398.759 282.215 398.759 288.603ZM45.2209 342.647H72.4727V368.658H63.2815V365.349C59.8349 367.693 54.5499 369.715 47.2429 369.715H47.1051C38.833 369.715 31.9856 367.371 27.1602 362.868C22.3348 358.318 19.7154 351.976 19.7154 344.347C19.7154 336.535 22.197 330.055 27.0224 325.643C31.8477 321.094 38.6951 318.934 46.9672 318.934C59.0996 318.934 68.3367 324.678 71.5536 332.629L72.151 334.329L63.7411 338.879L62.9598 336.857C59.8348 329.044 50.8275 327.987 46.7374 327.987C35.0646 328.309 29.7797 333.594 29.458 345.129C29.5959 354.779 35.8459 360.386 47.197 360.524C53.9065 360.524 60.6161 357.537 62.4543 351.976H45.1749L45.2209 342.647ZM136.351 334.513C136.351 329.825 134.651 325.965 131.066 323.437C127.62 320.956 122.794 319.853 116.774 319.853H89.0628V368.474H98.8974V348.851H112.914L127.068 368.474H139.201L124.265 348.208C130.101 346.967 136.168 342.785 136.351 334.513ZM126.701 334.513C126.563 336.994 125.919 337.776 124.219 338.695C122.335 339.476 119.394 339.936 115.487 339.936H98.8054V329.044H115.487C119.348 329.044 122.473 329.366 124.219 330.285C125.919 331.296 126.701 332.077 126.701 334.513ZM174.173 318.796C165.901 318.796 158.778 321.278 153.769 325.781C148.805 330.331 145.956 336.857 145.956 344.485C145.956 353.033 149.679 359.421 154.964 363.649C160.386 367.693 167.28 369.761 173.943 369.761C180.653 369.761 187.5 367.877 192.923 363.649C198.346 359.605 202.114 353.079 202.114 344.485C202.114 336.857 199.311 330.331 194.302 325.781C189.614 321.278 182.583 318.796 174.173 318.796ZM192.418 343.566C192.28 356.342 183.41 360.248 174.173 360.524C164.982 360.386 156.112 356.342 155.929 343.566C155.929 334.191 162.914 327.987 174.173 327.849C185.386 327.987 192.418 334.237 192.418 343.566ZM253.263 319.899H263.098V348.116C263.098 356.664 259.651 362.408 254.688 365.533C249.725 368.658 243.612 369.577 238.19 369.577C232.767 369.577 226.655 368.796 221.691 365.533C216.728 362.408 213.144 356.664 213.282 348.116V319.899H223.116V348.116C223.254 356.664 227.666 360.432 238.236 360.57C248.805 360.248 253.171 356.526 253.355 348.116V319.899H253.263ZM318.566 323.667C315.12 321.186 310.478 320.083 304.412 320.083H276.195V368.704H286.03V349.862H304.412C310.294 349.862 315.166 348.759 318.566 346.278C322.013 343.796 323.714 339.752 323.714 335.064C323.668 330.147 321.967 326.103 318.566 323.667ZM314.017 334.835C314.017 337.178 313.419 338.097 311.995 339.017C310.432 339.982 307.445 340.579 302.987 340.579H286.03V329.044H302.987C307.537 329.044 310.616 329.642 311.995 330.607C313.557 331.572 314.017 332.537 314.017 334.835ZM343.153 359.329H378.217V368.52H333.364V319.899H377.436V329.09H343.199V338.603H371.875V347.794H343.199L343.153 359.329Z" fill="#1D2540"/>
<path d="M329.734 229.871L300.644 212.592C306.388 213.373 311.535 210.708 316.361 207.307L325.23 218.199L319.807 204.779C325.69 200.092 330.561 195.129 336.627 194.945C353.125 194.485 341.59 214.246 347.519 214.384C354.228 214.384 361.535 192.417 345.359 182.767C328.677 172.656 314.063 187.316 302.252 184.789L346.462 164.982H281.802L279.458 160.616C291.131 165.901 299.541 160.937 305.01 155.469L323.392 158.134L308.135 152.252C311.719 148.529 314.844 145.542 318.704 146.967C324.127 148.989 327.436 153.814 336.765 153.952C352.804 154.09 364.477 125.735 343.291 113.281C344.853 133.548 335.478 134.651 319.026 123.851L324.633 114.66L316.223 121.967C300.506 114.982 292.831 128.814 286.168 133.364C279.458 137.914 273.392 128.814 265.442 139.614C277.436 135.754 283.502 147.059 291.453 139.614C288.19 160.018 276.517 133.364 264.798 143.474C274.908 144.256 280.193 153.309 288.19 153.309C302.988 153.309 289.752 124.816 310.616 124.816L307.17 122.656C319.026 121.553 319.624 133.41 337.408 133.548C339.293 136.213 332.721 136.535 328.217 134.972C327.436 138.695 352.344 147.289 346.462 118.934C354.274 123.116 352.574 141.039 345.221 147.748C343.796 148.989 342.418 149.77 341.636 148.346C339.614 145.358 344.761 145.358 346.324 140.717C340.717 145.542 331.204 145.267 324.679 139.154C318.153 133.042 308.456 125.735 304.274 138.557C300.092 151.379 296.646 157.261 289.017 157.261C278.447 157.399 267.188 139.844 255.515 149.449C277.942 151.471 283.227 187.132 302.85 187.592C318.107 187.592 321.554 180.882 331.526 180.882C341.499 180.882 351.931 186.167 351.931 199.265C351.931 207.215 347.749 211.719 347.749 211.719C347.749 211.719 350.874 205.331 349.311 197.059C347.886 189.246 341.223 184.467 332.353 184.467C320.037 184.467 310.249 204.55 296.554 204.55C269.164 204.55 262.133 151.746 233.64 159.881C254.642 174.035 257.032 196.967 268.337 205.653C279.872 214.522 293.567 210.937 301.011 217.509C304.136 220.175 305.377 224.816 306.434 229.825H303.769C302.804 227.344 301.425 224.862 299.219 222.978C292.693 216.131 272.932 219.118 263.879 209.421C254.872 199.586 248.162 170.312 230.377 165.809C245.956 175.781 249.357 201.471 260.432 214.062C271.508 226.654 286.26 219.945 292.969 226.517C294.21 227.757 295.129 228.86 296.094 229.963H283.318C282.215 229.825 280.975 229.642 279.596 229.642C277.574 229.642 275.414 229.779 273.346 229.963H256.388C254.045 229.182 251.839 228.079 250 226.103C241.131 216.728 242.05 206.939 242.693 195.404C244.394 206.296 246.416 231.204 265.12 228.401C241.59 220.312 255.285 180.147 226.655 169.853C223.53 168.75 224.633 158.64 232.399 157.077C216.82 160.064 217.004 154.412 227.85 143.061C221.14 147.426 213.695 146.186 212.133 151.011C212.133 151.011 224.908 170.956 224.908 174.816C224.908 178.676 216.499 194.439 215.533 194.899C212.408 196.599 202.114 196.599 199.679 195.864C197.013 195.083 193.796 186.489 194.991 183.869C197.013 179.687 212.592 176.241 212.914 170.175C213.052 165.349 206.526 164.89 206.802 167.371C210.524 168.612 212.225 174.219 201.057 176.884L203.539 172.84C203.539 172.84 195.267 179.366 194.807 179.688C194.348 180.009 192.464 180.147 191.223 179.688C189.982 179.366 178.125 173.575 180.147 168.015C180.147 168.015 183.732 169.577 192.739 169.577C201.747 169.577 202.574 165.717 202.574 165.717C202.574 165.717 197.749 166.958 192.923 166.958C187.96 166.958 183.089 165.717 183.089 165.717C179.228 164.752 183.41 159.972 184.651 159.835H194.026C194.624 159.835 195.451 158.594 194.026 158.41C193.061 158.41 187.179 158.272 186.719 156.71C185.938 154.228 184.375 138.465 184.375 138.465C184.375 138.465 186.397 133.64 184.697 131.939C182.997 130.377 182.215 131.158 182.215 131.158C186.076 152.987 169.44 166.498 159.973 163.833L158.87 163.695C161.03 165.257 163.695 166.82 167.28 167.877C149.541 171.599 142.188 160.892 139.431 154.182C137.868 154.963 137.868 159.145 138.006 161.994C134.283 157.95 132.124 151.7 135.524 147.197C130.975 149.357 130.837 150.184 130.837 150.184C130.975 146.461 137.546 143.934 140.809 139.614C144.072 135.248 143.475 128.539 136.26 125.781C136.719 132.491 133.456 137.178 126.609 139.338C120.083 141.498 121.186 135.616 115.074 136.857C125.046 139.2 124.587 152.895 134.513 158.502C121.278 155.377 118.934 137.362 102.712 139.062C112.087 125.827 126.701 137.178 132.767 127.987C117.05 131.572 106.296 118.336 104.412 103.722C101.931 81.6176 83.0427 92.5092 83.4103 81.6176C92.9232 85.7996 113.925 69.6231 120.175 88.1434C126.701 107.445 139.798 115.395 151.655 106.388L100.322 54.0901L106.848 75.9191C93.4287 78.5846 77.2522 70.6342 85.9839 51.7923C73.2081 45.9099 56.3883 67.0496 71.9673 83.5937C79.1364 91.2224 96.7375 88.4191 101.241 103.998L84.5592 102.574L101.701 107.123L106.848 122.243L66.8203 102.803L91.4067 131.48C77.1144 139.108 73.4839 117.325 54.9636 117.785C42.0041 118.107 27.3901 131.48 33.4563 147.059C52.8956 135.202 59.1456 143.612 67.4177 151.884L55.4232 158.272L69.5776 153.906C74.5408 158.594 80.7908 162.454 90.9471 161.857C107.767 160.616 122.565 155.147 126.287 159.835C129.274 163.281 125.828 165.257 119.761 165.257H39.7063L71.7835 182.537C68.6585 184.881 59.789 195.956 53.539 195.956C47.289 195.956 33.4563 186.443 29.7339 203.125C44.0261 200.643 51.2412 231.939 81.2504 206.985L67.2339 230.193H1.24121V238.143H398.208V230.055H329.734V229.871ZM314.155 135.524C321.462 138.649 298.76 160.892 291.728 160.11C306.25 155.744 306.71 132.399 314.155 135.524ZM317.142 201.057C322.289 187.362 338.511 181.434 345.175 193.428C345.497 194.026 345.037 194.531 343.75 193.29C335.34 184.88 324.587 192.831 317.923 201.562C317.004 202.941 316.682 202.16 317.142 201.057ZM82.7669 53.7684C78.585 61.0754 79.3203 74.4945 96.3239 78.5386C67.9691 84.8805 68.7504 52.6654 82.7669 53.7684ZM59.8809 141.268C46.7835 134.099 35.2945 142.693 35.2945 142.693C39.1548 129.733 63.3276 128.676 59.8809 141.268ZM65.6254 136.121C63.6033 133.456 62.0408 131.296 59.8809 130.515C57.0776 129.733 54.1364 129.733 51.3331 129.917C48.0703 130.055 45.0831 130.239 44.3478 128.217C43.7504 126.792 44.3478 125.414 46.0482 124.173C47.7486 122.932 50.414 122.013 53.0335 121.829C56.0206 121.691 58.4563 122.289 60.2026 123.851C61.903 125.276 62.5464 125.414 62.868 125.276C63.3276 125.138 63.1897 124.035 63.1897 123.392C63.1897 122.932 63.0519 122.426 63.3276 122.61C68.0151 123.392 70.175 126.195 72.7026 129.136C76.7467 133.961 82.8129 141.268 97.7945 138.649C93.7964 152.022 72.335 147.978 65.6254 136.121ZM77.6199 154.366C76.8386 148.621 105.975 144.256 106.296 152.665C106.434 159.789 78.585 160.754 77.6199 154.366ZM179.32 167.279C175.46 168.52 174.771 174.724 186.03 177.39C182.445 177.849 173.438 176.287 173.07 170.083C172.932 165.257 179.458 164.798 179.32 167.279ZM168.383 177.895C178.815 178.493 189.89 183.778 189.89 183.778C191.131 186.443 188.006 194.991 185.203 195.772C182.721 196.553 170.083 195.175 168.245 189.89C175.69 191.912 176.333 189.108 176.333 189.108C176.333 189.108 169.486 189.108 166.682 184.421C172.105 186.305 174.633 184.421 174.633 184.421C174.633 184.421 164.201 180.377 163.879 178.033H168.429L168.383 177.895ZM134.283 164.017C137.271 167.463 118.245 176.011 108.732 172.748C124.679 173.024 131.204 160.616 134.283 164.017ZM112.546 176.608C123.438 176.608 129.826 173.024 132.491 170.358C131.388 178.171 123.116 180.79 112.546 180.79C101.977 180.79 92.2798 169.256 84.3294 176.93C98.346 175.23 100.552 190.165 116.407 185.202C102.712 200 92.6015 173.989 76.8846 181.48C84.9269 162.316 101.747 176.608 112.546 176.608ZM34.3294 200.46C42.6015 188.327 48.9894 205.009 62.5464 195.772C67.096 202.941 56.0206 207.445 49.4489 203.401C42.9232 199.357 37.7302 199.173 34.3294 200.46ZM74.2191 209.007C68.107 213.695 52.8497 218.382 53.0794 208.41C69.118 211.535 72.7026 188.787 86.857 195.45C83.2265 196.278 80.1015 204.504 74.2191 209.007ZM72.0133 229.871L118.888 204.044C118.888 212.592 117.647 218.842 115.625 223.483L92.5555 229.871H72.0133ZM117.831 229.871H114.385C116.728 226.425 118.567 222.426 120.635 217.739C120.772 220.542 120.129 225.368 117.831 229.871ZM128.539 229.871C130.561 213.373 121.554 188.787 147.243 169.761C143.796 172.886 127.804 186.903 132.721 225.046C137.684 216.774 133.502 185.524 148.3 174.265C137.868 187.04 143.475 209.467 135.846 229.871H128.539ZM144.899 229.871H139.155C147.703 213.833 142.877 187.96 150.368 180.055C145.221 189.2 153.309 211.673 144.899 229.871ZM150.368 229.871L155.056 222.426C157.399 225.414 158.64 227.849 159.1 229.871H150.368ZM176.977 229.871H173.851C173.989 227.528 173.53 225.322 171.829 223.162C159.973 207.445 159.513 203.998 159.513 203.998C160.616 215.993 168.061 217.555 169.945 229.825H164.982C163.098 220.45 153.769 216.866 157.813 189.476L158.135 187.454C158.732 212.362 176.977 216.406 176.977 228.722C177.16 229.09 176.977 229.55 176.977 229.871ZM190.212 229.871H184.927C186.949 221.324 183.364 218.658 176.057 210.892C186.949 218.382 190.855 223.667 190.212 229.871ZM178.999 203.585C178.033 203.263 177.436 200.919 177.436 200.46C177.436 200.322 177.758 199.862 178.999 199.862C178.999 199.862 188.374 200.184 193.015 200.184C197.84 200.184 206.848 199.862 207.032 199.862C208.272 199.862 208.594 200.322 208.594 200.46C208.594 200.919 207.997 203.447 207.032 203.585C207.032 203.585 198.162 205.744 192.877 205.469C188.052 205.744 179.182 203.585 178.999 203.585ZM197.565 229.871C197.703 225.827 196.967 221.14 193.842 214.752C199.265 221.14 200.828 225.643 201.011 229.871H197.565ZM209.697 229.871H206.434C207.859 225.046 208.318 219.761 204.09 212.27C210.157 217.555 210.616 223.667 209.697 229.871ZM216.223 229.871H212.5C214.063 223.621 214.982 216.912 211.076 209.007C217.326 214.154 217.142 222.105 216.223 229.871ZM222.611 229.871L218.75 218.474C221.875 220.037 224.035 224.219 226.057 229.871C226.011 229.871 222.611 229.871 222.611 229.871ZM240.533 229.871C238.19 224.908 235.708 221.14 232.905 219.899C234.927 222.886 236.352 226.287 237.592 229.871H233.686C228.079 218.796 218.888 210.57 228.401 190.165C218.75 211.029 242.556 223.943 247.105 228.171C247.565 228.631 248.208 229.274 248.668 230.055H240.579L240.533 229.871ZM205.975 118.98C204.09 121.783 208.778 124.127 213.603 121.645C217.785 119.485 220.589 116.82 227.298 116.82C231.48 116.82 237.408 124.127 240.717 118.842C243.061 121.967 239.936 125.689 234.973 125.689C229.826 125.689 227.666 121.507 221.278 121.507C214.89 121.507 213.649 125.368 205.423 125.368C197.013 125.368 195.313 110.248 206.388 109.007C199.863 114.476 202.206 118.98 205.975 118.98ZM274.495 41.5901C270.91 56.8474 259.835 51.8842 250.046 65.1195C240.258 78.3548 254.228 101.103 227.344 100.919C249.908 95.3125 235.616 78.8143 246.508 62.9136C252.666 53.6305 268.888 53.9062 274.495 41.5901ZM212.317 76.3327C212.317 76.3327 209.513 87.0864 215.763 93.1526C202.528 88.3272 212.317 76.3327 212.317 76.3327ZM274.173 50C270.727 61.2132 264.201 59.375 257.032 69.807C248.76 78.9981 259.697 105.331 236.949 104.687C255.01 99.4026 245.037 80.8823 253.769 67.9228C258.594 60.7537 269.348 58.9154 274.173 50ZM270.405 110.57C267.602 112.454 260.111 120.542 255.607 122.702C255.607 117.417 266.82 99.6323 285.662 107.307C283.502 109.191 275.598 107.169 270.405 110.57ZM256.894 134.099C248.484 131.434 242.877 138.281 241.499 135.202C240.671 131.296 252.666 131.296 256.894 134.099ZM265.258 128.952C264.936 102.665 299.495 116.36 303.585 97.9779C306.572 117.142 272.611 116.039 265.258 128.952ZM255.929 145.358C242.693 139.614 235.662 147.84 235.065 143.934C234.146 138.143 251.425 138.787 255.929 145.358ZM217.142 47.8401C226.011 66.0845 194.578 71.0478 207.951 93.0147C188.052 76.6544 218.245 62.0404 217.142 47.8401ZM200.184 186.305C200.965 185.846 201.609 183.64 201.885 183.18C205.331 180.836 209.513 179.596 211.397 178.355C211.122 182.077 203.631 187.04 200.184 186.305ZM168.245 127.39C162.96 126.287 156.848 131.572 150.828 134.375C156.572 142.647 169.67 143.244 174.954 146.232C176.195 144.393 180.102 129.733 168.245 127.39ZM162.179 140.809C156.756 138.787 159.054 128.355 166.223 129.917C165.763 130.699 162.5 136.949 162.179 140.809ZM166.223 142.05C168.567 139.568 170.267 133.318 170.772 132.399C175.92 136.443 170.772 143.796 166.223 142.05ZM165.166 121.967C159.421 121.967 146.921 134.559 144.026 122.289C144.026 122.289 145.91 122.886 148.208 122.748C150.368 115.579 162.041 108.915 169.21 110.892C160.8 111.489 154.412 117.417 155.377 120.864C156.618 125.414 163.925 118.382 170.175 118.52C177.482 118.52 181.572 125.965 187.317 119.118C186.949 133.824 170.451 121.967 165.166 121.967ZM185.57 44.2555L191.82 60.4779C191.82 60.4779 186.076 67.1875 186.076 78.9981C186.076 102.206 205.056 104.366 203.815 95.0368C190.396 101.149 189.798 81.8015 193.521 77.7573C193.521 77.7573 191.039 87.8676 200.046 91.5901C188.052 71.7831 211.581 64.3382 211.581 48.6213C211.581 35.5239 203.493 31.204 203.631 19.2096C203.769 4.68749 225.138 0.965066 225.46 6.43382C225.598 10.4779 209.881 10.7996 209.743 25.8732C209.421 39.8897 225.138 43.2904 224.863 56.8474C224.541 65.7169 208.64 73.989 218.613 90.8088L241.315 26.7923L223.714 46.2316C218.153 39.2463 213.787 38.6029 213.787 26.1489C213.787 13.6948 227.62 11.8566 227.62 6.06617C227.62 1.37867 220.635 0.781243 215.625 0.459551C207.813 0.13786 193.796 6.98529 193.796 21.4614C193.796 35.9834 203.631 43.2904 193.796 56.9853L185.57 44.2555ZM206.113 41.1305C212.363 60.7537 191.958 66.0386 190.258 78.9522C188.971 63.2353 208.456 55.7904 206.113 41.1305ZM154.09 155.469L153.493 154.366C152.068 152.022 152.712 147.059 152.712 147.059C149.449 146.921 144.302 153.309 144.302 153.309C144.302 153.309 142.142 145.864 149.908 142.555C149.311 141.452 149.771 140.074 149.771 140.074C156.158 146.599 167.693 146.324 170.772 148.483C170.772 148.438 151.287 144.991 154.09 155.469ZM112.363 57.1691L126.655 64.0165C127.114 68.9798 129.136 74.1268 134.1 79.8713C139.706 86.397 154.826 88.2812 155.469 103.539C160.157 98.8511 156.434 88.1434 146.278 82.0312C107.813 59.6048 172.289 24.2647 130.883 11.6728C166.682 9.32903 151.425 41.7279 154.274 54.6415C158.135 72.5643 174.817 68.1985 183.686 79.4118L173.851 24.9081L164.66 62.9136C152.528 61.0294 156.71 43.75 157.032 28.2169C157.629 -1.56251 106.71 7.0772 113.557 23.6673C116.223 30.0551 133.502 15.7169 133.64 30.8364C133.778 41.1305 127.252 50 126.655 59.9724L112.363 57.1691ZM117.188 21.3695C113.741 17.1875 130.883 12.3621 134.008 23.0698C125.598 17.4632 118.888 23.2537 117.188 21.3695ZM181.664 97.0588C189.293 69.807 130.745 84.4669 147.703 52.3897C141.315 84.1452 193.934 67.6011 181.664 97.0588ZM241.774 155.101C272.151 144.807 281.48 195.129 299.265 194.807C310.157 194.485 314.201 187.5 322.151 185.8C316.728 189.384 308.916 198.897 299.265 199.035C272.473 199.678 273.07 157.629 241.774 155.101ZM173.07 89.4301C173.07 88.1893 172.611 87.0864 171.646 86.1673C166.039 80.5607 149.541 81.8015 141.866 73.8511C124.449 56.5717 157.905 41.7739 146.554 17.0496C167.418 34.1912 122.105 65.0276 152.298 75.2757C165.074 79.6415 169.44 81.1581 172.565 83.5478C174.587 85.1103 176.011 87.5919 176.011 90.3952C176.011 95.2206 172.151 99.1268 167.28 99.1268C164.614 99.1268 162.317 98.0239 160.754 96.1397C157.307 92.5551 158.41 86.0294 156.067 84.1452C160.111 83.364 162.317 90.3952 166.361 92.8768C167.142 93.3364 167.923 93.6581 168.704 93.6581C171.048 93.75 173.07 91.9118 173.07 89.4301ZM125.276 102.022C128.401 109.329 137.133 111.994 142.556 112.132C131.204 126.792 122.473 108.732 125.276 102.022ZM202.712 190.947C204.274 189.982 205.699 188.143 206.434 187.086C211.397 185.202 213.879 184.283 214.247 183.364C215.12 186.581 208.594 192.509 202.712 190.947ZM245.818 126.287C242.372 128.171 240.671 132.031 239.431 130.009C238.649 128.952 241.269 125.689 245.818 126.287ZM235.708 132.858C229.596 130.055 223.392 124.77 218.291 125.873C206.296 128.217 210.34 142.831 211.581 144.715C216.866 141.728 229.964 140.947 235.708 132.858ZM224.173 138.925C224.173 138.925 220.589 128.814 220.129 128.033C227.436 126.471 229.596 136.949 224.173 138.925ZM215.579 130.515C216.039 131.48 217.602 137.5 220.129 140.165C215.579 141.912 210.478 134.559 215.579 130.515ZM261.857 97.5184C256.572 103.401 256.894 108.088 248.897 113.235C259.329 117.785 259.651 103.86 269.899 100.919C277.068 98.897 282.353 107.445 292.464 102.803C302.574 98.1158 298.989 79.2739 303.999 71.0018C309.008 62.7298 322.519 54.9632 332.215 71.5993C332.215 71.5993 315.855 55.5607 308.227 74.7243C313.511 70.3585 321.462 68.9798 321.462 73.1618C317.28 74.5864 310.57 76.8842 310.386 91.8658C310.065 109.283 303.079 113.006 297.611 116.636C289.66 121.921 271.324 121.599 267.234 133.456L330.975 105.101H311.535C314.017 90.8088 308.548 69.5772 335.203 74.5864C338.465 67.6011 316.361 44.807 297.059 70.7261L295.175 64.2004C291.131 98.6213 272.932 85.2022 261.857 97.5184ZM295.497 80.239C298.76 85.8456 288.971 95.9559 288.971 95.9559C291.453 96.9209 291.453 100.643 288.19 101.562C282.445 103.263 277.758 96.7371 270.451 98.5754C271.967 95.9559 287.363 96.5993 295.497 80.239ZM115.625 111.994C115.625 100.781 121.232 94.3934 110.938 87.5459C131.021 91.9118 111.26 121.324 138.052 120.864C132.124 129.733 115.763 125.551 115.625 111.994ZM244.118 52.6654V39.1084L247.703 51.1029C255.791 48.7592 266.085 44.5772 265.763 37.2702C265.442 29.9632 257.813 26.8382 257.675 22.3346C257.537 15.625 280.561 19.5312 280.561 41.0386C280.561 56.2959 275.276 60.8456 275.276 60.8456L294.715 50.8731L260.938 94.6231C260.938 94.6231 250.506 110.478 243.658 107.721C250.184 106.48 258.778 95.7261 258.778 86.2132C258.778 73.4375 268.75 65.671 271.875 61.6268C275.138 57.4448 290.396 28.4467 263.144 21.5993C280.883 39.6599 265.166 47.886 250.184 53.6765C235.892 59.0993 240.212 81.0662 235.892 88.7408C231.204 96.5533 218.75 99.3107 216.453 99.3107C220.635 92.0037 229.228 89.6599 232.307 81.25C235.386 72.2886 230.837 59.375 244.118 52.6654Z" fill="#1D2540"/>
</svg>
